<svg width="18" height="18" viewBox="0 0 18 18" fill="none" xmlns="http://www.w3.org/2000/svg">
<path d="M8.97012 16.4751H2.24251C1.82988 16.4751 1.49502 16.1402 1.49502 15.7276V2.27245C1.49502 1.85983 1.82992 1.52496 2.24251 1.52496H8.97012C9.38348 1.52496 9.71761 1.19084 9.71761 0.77747C9.71761 0.364103 9.38348 0.0299072 8.97012 0.0299072H2.24251C1.00614 0.0299072 0 1.03608 0 2.27245V15.7276C0 16.964 1.00614 17.9701 2.24251 17.9701H8.97012C9.38348 17.9701 9.71761 17.636 9.71761 17.2226C9.71761 16.8092 9.38348 16.4751 8.97012 16.4751Z" fill="black"/>
<path d="M17.7772 8.46778L13.2323 3.98272C12.9393 3.69268 12.4654 3.69644 12.1753 3.99021C11.8853 4.28397 11.8883 4.75714 12.1828 5.04718L15.4307 8.25248H6.72747C6.31411 8.25248 5.97998 8.58661 5.97998 8.99997C5.97998 9.41334 6.31411 9.7475 6.72747 9.7475H15.4307L12.1828 12.9528C11.8883 13.2428 11.8861 13.716 12.1753 14.0098C12.3218 14.1578 12.5147 14.2325 12.7076 14.2325C12.8974 14.2325 13.0873 14.1608 13.2323 14.0172L17.7772 9.53217C17.9192 9.39165 17.9999 9.20026 17.9999 8.99994C17.9999 8.79969 17.9199 8.60907 17.7772 8.46778Z" fill="black"/>
</svg>
