<svg width="17" height="20" viewBox="0 0 17 20" fill="none" xmlns="http://www.w3.org/2000/svg">
<path d="M16.649 15.9161C16.5859 15.878 16.1106 15.568 15.6346 14.6303C14.7606 12.9084 14.5772 10.4827 14.5772 8.75098C14.5772 8.74344 14.577 8.73598 14.5767 8.72848C14.5672 6.43984 13.095 4.46695 10.9884 3.58176V2.22797C10.9884 0.999453 9.91652 0 8.599 0H8.40099C7.08347 0 6.0116 0.999453 6.0116 2.22797V3.58168C3.8979 4.46973 2.42282 6.45269 2.42282 8.75098C2.42282 10.4827 2.23937 12.9083 1.36535 14.6303C0.889457 15.568 0.414156 15.8779 0.350962 15.9161C0.0848405 16.0308 -0.0463739 16.2956 0.0148482 16.564C0.0766579 16.8351 0.348822 17.022 0.646037 17.022H5.2596C5.28537 18.6681 6.7286 20 8.50002 20C10.2714 20 11.7147 18.6681 11.7404 17.022H16.354C16.6512 17.022 16.9234 16.8351 16.9852 16.564C17.0463 16.2956 16.9151 16.0307 16.649 15.9161ZM7.2705 2.22797C7.2705 1.64668 7.77764 1.17379 8.40103 1.17379H8.59904C9.22243 1.17379 9.72958 1.64668 9.72958 2.22797V3.20129C9.33228 3.12484 8.92102 3.08461 8.49985 3.08461C8.0788 3.08461 7.66766 3.1248 7.27054 3.20117V2.22797H7.2705ZM8.50002 18.8262C7.42273 18.8262 6.54401 18.0209 6.51846 17.022H10.4815C10.456 18.0208 9.5773 18.8262 8.50002 18.8262ZM11.0345 15.8481C11.0344 15.8481 2.0805 15.8481 2.0805 15.8481C2.18939 15.6902 2.30021 15.5113 2.41036 15.3091C3.25396 13.7606 3.68172 11.5541 3.68172 8.75098C3.68172 6.27375 5.84312 4.2584 8.49981 4.2584C11.1565 4.2584 13.3179 6.27375 13.3179 8.75293C13.3179 8.76016 13.318 8.76734 13.3183 8.77453C13.3207 11.5664 13.7484 13.765 14.5897 15.3091C14.6998 15.5113 14.8107 15.6902 14.9195 15.8481H11.0345Z" fill="black"/>
</svg>
